<svg version="1.0" width="851.02502" height="1006.9097" viewBox="0 0 851.02502 1006.9097" preserveAspectRatio="xMidYMid" xmlns="http://www.w3.org/2000/svg" xmlns:svg="http://www.w3.org/2000/svg">
  <g fill="#B087F4" fill-rule="evenodd" transform="translate(-206.39999,-24.799999)">
    <path d="m 656.5,89.5 0.5,-0.5 0.2,-0.4 c 0.1,-0.2 2.2,-1.8 4.5,-3.6 2.3,-1.9 4.4,-3.2 4.6,-3 0.2,0.3 -0.3,1.7 -1,3.2 L 664,88 v 0 h -0.5 c -0.3,0 -0.5,0.2 -0.5,0.5 v 0.5 0 h -0.5 c -0.3,0 -0.5,0.2 -0.5,0.5 0,0.2 0.2,0.5 0.5,0.5 h 0.5 v 0 l -3,1.8 c -1.7,1 -2.7,2.2 -2.4,2.5 0.4,0.4 0.1,0.7 -0.5,0.7 -0.7,0 -1,0.4 -0.6,1 0.3,0.5 -0.1,1.2 -1,1.6 -0.8,0.3 -1.3,1 -1,1.5 0.3,0.5 -0.1,1.1 -0.8,1.4 -0.8,0.3 -1.4,1.1 -1.4,1.8 0,0.6 -2.2,4.4 -4.8,8.4 -2.7,4 -5.3,7.3 -5.8,7.2 -0.5,0 -0.6,0.5 -0.2,1.1 0.3,0.5 -0.1,1.2 -1,1.6 -0.8,0.3 -1.3,1 -1,1.5 0.3,0.5 -0.1,1.1 -1,1.5 -0.8,0.3 -1.3,1 -1,1.5 0.3,0.5 -0.1,1.1 -0.8,1.4 -0.8,0.3 -1.4,1.1 -1.4,1.8 0,0.6 -2.6,5.1 -5.8,9.9 -3.2,4.8 -6.3,8.8 -6.8,8.8 -0.5,0 -0.6,0.4 -0.2,1 0.3,0.5 -0.1,1.2 -1,1.6 -0.8,0.3 -1.3,1 -1,1.5 0.3,0.5 -0.1,1.1 -0.8,1.4 -0.8,0.3 -1.4,1.1 -1.4,1.8 0,0.6 -2.2,4.4 -4.8,8.4 -2.7,4 -5.3,7.3 -5.8,7.3 -0.5,0 -0.6,0.4 -0.2,1 0.3,0.5 -0.1,1.2 -1,1.6 -0.8,0.3 -1.3,1 -1,1.5 0.3,0.5 -0.1,1.1 -1,1.5 -0.8,0.3 -1.3,1 -1,1.4 0.3,0.5 -0.5,2 -1.7,3.3 -1.3,1.3 -2.5,2.9 -2.6,3.6 -0.2,0.6 -1.9,3.6 -3.9,6.6 -2,3 -4,5.4 -4.6,5.5 -0.5,0 -0.6,0.4 -0.2,1 0.3,0.5 -0.1,1.2 -1,1.6 -0.8,0.3 -1.3,1 -1,1.5 0.3,0.5 -0.1,1.1 -0.8,1.4 -0.8,0.3 -1.4,1.1 -1.4,1.8 0,0.6 -2.6,5.1 -5.8,9.9 -3.2,4.8 -6.3,8.7 -6.8,8.7 -0.5,0 -0.6,0.5 -0.2,1.1 0.3,0.5 -0.1,1.2 -1,1.6 -0.8,0.3 -1.3,1 -1,1.5 0.3,0.5 -0.1,1.1 -1,1.5 -0.8,0.3 -1.3,1 -1,1.4 0.3,0.5 -0.6,2.1 -2,3.4 -1.3,1.4 -2.1,2.6 -1.8,2.6 0.4,0 0.1,0.6 -0.7,1.2 -0.9,0.7 -1.7,1.9 -1.8,2.6 -0.2,0.7 -1,2.4 -1.9,3.7 -0.9,1.4 -2,2.5 -2.5,2.5 -0.5,0 -0.7,0.4 -0.3,1 0.3,0.5 -0.1,1.2 -1,1.6 -0.8,0.3 -1.3,1 -1,1.5 0.3,0.5 -0.1,1.1 -1,1.5 -0.8,0.3 -1.3,1 -1,1.5 0.3,0.5 -0.1,1.1 -1,1.5 -0.8,0.3 -1.3,1 -1,1.5 0.3,0.5 -0.1,1.1 -0.8,1.4 -0.8,0.3 -1.4,1.1 -1.4,1.8 0,0.6 -1.7,3.8 -3.8,6.9 -2.1,3.2 -4.2,5.7 -4.8,5.7 -0.5,0.1 -0.6,0.4 -0.3,0.9 0.3,0.5 -0.6,2.1 -1.9,3.5 -1.4,1.5 -2.1,2.7 -1.8,2.7 0.4,0 0.1,0.6 -0.7,1.2 -0.9,0.7 -1.7,1.8 -1.8,2.5 -0.2,0.7 -1.9,3.8 -3.9,6.8 -2,3 -4,5.4 -4.5,5.4 -0.5,0 -0.7,0.4 -0.6,0.8 0.1,0.4 -0.8,2.4 -2.1,4.5 -1.3,2.1 -2.8,3.8 -3.3,3.8 -0.5,0 -0.7,0.4 -0.3,1 0.3,0.5 -0.1,1.2 -0.8,1.5 -0.8,0.3 -1.4,1.1 -1.4,1.8 0,0.6 -2.2,4.4 -4.8,8.4 -2.7,4 -5.3,7.2 -5.8,7.2 -0.5,0.1 -0.6,0.5 -0.2,1.1 0.3,0.5 -0.1,1.2 -1,1.6 -0.8,0.3 -1.3,1 -1,1.5 0.3,0.5 -0.1,1.1 -1,1.5 -0.8,0.3 -1.3,1 -1,1.5 0.3,0.5 -0.1,1.1 -1,1.5 -0.8,0.3 -1.3,1 -1,1.5 0.3,0.5 -0.1,1.1 -0.8,1.4 -0.8,0.3 -1.4,1.1 -1.4,1.8 0,0.6 -1.7,3.8 -3.8,6.9 -2.1,3.2 -4.2,5.8 -4.8,5.8 -0.5,0 -0.6,0.4 -0.2,1 0.3,0.5 -0.1,1.2 -1,1.6 -0.8,0.3 -1.3,1 -1,1.5 0.3,0.5 -0.1,1.1 -1,1.5 -0.8,0.3 -1.3,1 -1,1.5 0.3,0.5 -0.1,1.1 -1,1.5 -0.8,0.3 -1.3,1 -1,1.5 0.3,0.5 -0.1,1.1 -0.8,1.4 -0.8,0.3 -1.4,1.1 -1.4,1.8 0,0.6 -1.7,3.8 -3.8,6.9 -2.1,3.2 -4.2,5.8 -4.8,5.8 -0.5,0 -0.6,0.4 -0.2,1 0.3,0.5 -0.1,1.2 -1,1.6 -0.8,0.3 -1.3,1 -1,1.5 0.3,0.5 -0.1,1.1 -1,1.5 -0.8,0.3 -1.3,1 -1,1.5 0.3,0.5 -0.1,1.1 -0.8,1.4 -0.8,0.3 -1.4,1.1 -1.4,1.8 0,0.6 -1.3,3.1 -2.8,5.4 -1.6,2.3 -3.2,4.3 -3.7,4.3 -0.6,0 -0.7,0.4 -0.3,1 0.3,0.5 -0.1,1.2 -1,1.6 -0.8,0.3 -1.3,1 -1,1.5 0.3,0.5 -0.1,1.1 -1,1.5 -0.8,0.3 -1.3,1 -1,1.5 0.3,0.5 -0.1,1.1 -1,1.5 -0.8,0.3 -1.3,1 -1,1.5 0.3,0.5 -0.1,1.1 -1,1.5 -0.8,0.3 -1.3,1 -1,1.5 0.3,0.5 -0.1,1.1 -1,1.5 -0.8,0.3 -1.3,1 -1,1.4 0.3,0.5 -0.6,2.1 -2,3.4 -1.3,1.4 -2.1,2.6 -1.8,2.6 0.4,0 0.1,0.6 -0.7,1.2 -0.9,0.7 -1.7,1.8 -1.8,2.5 -0.2,0.8 -1.5,3.1 -2.9,5.3 -1.4,2.2 -3,4 -3.5,3.9 -0.6,0 -0.7,0.5 -0.3,1.1 0.3,0.5 -0.1,1.2 -1,1.6 -0.8,0.3 -1.3,1 -1,1.5 0.3,0.5 -0.1,1.1 -0.8,1.4 -0.8,0.3 -1.4,1.1 -1.4,1.8 0,0.6 -2.6,5.1 -5.8,9.9 -3.2,4.8 -6.3,8.8 -6.8,8.8 -0.5,0 -0.6,0.4 -0.2,1 0.3,0.5 -0.1,1.2 -1,1.6 -0.8,0.3 -1.3,1 -1,1.5 0.3,0.5 -0.1,1.1 -1,1.5 -0.8,0.3 -1.3,1 -1,1.5 0.3,0.5 -0.1,1.1 -0.8,1.4 -0.8,0.3 -1.4,1.1 -1.4,1.8 0,0.6 -1.3,3.1 -2.8,5.4 -1.6,2.3 -3.2,4.3 -3.7,4.2 -0.6,0 -0.7,0.5 -0.3,1.1 0.3,0.5 -0.1,1.2 -1,1.6 -0.8,0.3 -1.3,1 -1,1.5 0.3,0.5 -0.1,1.1 -1,1.5 -0.8,0.3 -1.3,1 -1,1.5 0.3,0.5 -0.1,1.1 -1,1.5 -0.8,0.3 -1.3,1 -1,1.5 0.3,0.5 -0.1,1.1 -1,1.5 -0.8,0.3 -1.3,1 -1,1.5 0.3,0.5 -0.1,1.1 -0.8,1.4 -0.8,0.3 -1.4,1.1 -1.4,1.8 0,0.6 -1.7,3.8 -3.8,6.9 -2.1,3.2 -4.2,5.8 -4.8,5.8 -0.5,0 -0.6,0.3 -0.3,0.8 0.3,0.5 -0.6,2.1 -1.9,3.5 -1.3,1.4 -2.1,2.8 -1.8,3.1 0.3,0.3 -0.2,0.8 -1.1,1.1 -0.9,0.4 -1.4,1.1 -1.1,1.6 0.3,0.5 -0.1,1.1 -1,1.5 -0.8,0.3 -1.3,1 -1,1.5 0.3,0.5 -0.1,1.1 -1,1.5 -0.8,0.3 -1.3,1 -1,1.5 0.3,0.5 -0.1,1.1 -0.8,1.4 -0.8,0.3 -1.4,1.1 -1.4,1.8 0,0.6 -1.3,3.1 -2.8,5.4 -1.6,2.3 -3.2,4.3 -3.7,4.3 -0.6,0 -0.7,0.4 -0.3,1 0.3,0.5 -0.1,1.2 -1,1.6 -0.8,0.3 -1.3,1 -1,1.5 0.3,0.5 -0.1,1.1 -1,1.5 -0.8,0.3 -1.3,1 -1,1.5 0.3,0.5 -0.1,1.1 -0.8,1.4 -0.8,0.3 -1.4,1.1 -1.4,1.8 0,0.6 -2.6,5.1 -5.8,9.9 -3.2,4.8 -6.3,8.8 -6.8,8.8 -0.5,0 -0.6,0.4 -0.2,1 0.3,0.5 -0.1,1.2 -1,1.6 -0.8,0.3 -1.3,1 -1,1.5 0.3,0.5 -0.1,1.1 -0.8,1.4 -0.8,0.3 -1.4,1.1 -1.4,1.8 0,0.6 -2.2,4.4 -4.8,8.4 -2.7,4 -5.3,7.3 -5.8,7.3 -0.5,0 -0.6,0.4 -0.2,1 0.3,0.5 -0.1,1.2 -1,1.6 -0.8,0.3 -1.3,1 -1,1.5 0.3,0.5 -0.1,1.1 -1,1.5 -0.8,0.3 -1.3,1 -1,1.5 0.3,0.5 -0.1,1.1 -0.9,1.4 -0.8,0.4 -1.3,1.3 -1,2 0.4,0.9 -0.1,1.5 -1.1,1.5 -0.9,0 -1.4,0.4 -1.1,0.9 0.3,0.5 -1.3,3.6 -3.6,7 -2.3,3.3 -4.6,6.1 -5.1,6.1 -0.5,0 -0.6,0.4 -0.2,1 0.3,0.5 -0.1,1.2 -1,1.6 -0.8,0.3 -1.3,1 -1,1.5 0.3,0.5 -0.1,1.1 -1,1.5 -0.8,0.3 -1.3,1 -1,1.5 0.3,0.5 -0.1,1.1 -1,1.5 -0.8,0.3 -1.3,1 -1,1.5 0.3,0.5 -0.1,1.1 -0.8,1.4 -0.8,0.3 -1.4,1.1 -1.4,1.8 0,0.6 -1.3,3.1 -2.8,5.4 -1.5,2.3 -2.6,4.7 -2.4,5.3 0.3,0.8 27,1.1 97.4,1.3 l 97,0.2 -0.2,3 c -0.1,1.6 -0.6,5.4 -1.2,8.5 -0.6,3 -1.3,8.2 -1.7,11.5 -0.4,3.3 -0.8,7.2 -1.1,8.7 -0.2,1.5 -0.5,4 -0.8,5.5 -0.2,1.5 -0.7,4.8 -1,7.3 -0.4,2.4 -0.8,5.6 -1,7 -0.2,1.3 -1.1,6.4 -1.9,11.2 -0.9,4.9 -1.9,11.4 -2.2,14.5 -0.4,3.2 -0.8,6.9 -1,8.3 -0.2,1.3 -1,6.5 -1.9,11.5 -0.8,4.9 -1.7,11.4 -2.1,14.5 -0.3,3 -0.8,6.6 -1,8 -0.2,1.3 -1,6.5 -1.8,11.5 -0.8,4.9 -1.2,9.3 -1,9.7 0.2,0.4 0,1.5 -0.5,2.5 -0.5,1 -1.2,4.5 -1.6,7.8 -0.3,3.3 -0.7,7.1 -1,8.5 -0.2,1.3 -0.9,5.5 -1.5,9.1 -0.6,3.7 -1.3,8.9 -1.6,11.5 -0.3,2.7 -0.8,6.4 -1.1,8.4 -0.3,1.9 -0.6,4.4 -0.7,5.5 -0.2,1.1 -0.6,3.5 -1,5.5 -0.4,1.9 -0.9,5.5 -1.1,8 -0.2,2.4 -0.7,5.6 -0.9,7 -0.3,1.3 -1.2,6.7 -2.1,12 -0.8,5.2 -1.7,11.7 -2.1,14.5 -0.3,2.7 -0.8,6.3 -1,8 -0.2,1.6 -1.5,10.2 -2.9,19 -1.4,8.8 -2.6,17.8 -2.7,20 -0.1,2.2 -0.5,4.6 -0.9,5.5 -0.4,0.8 -1.1,4.4 -1.4,8 -0.4,3.5 -0.8,7.6 -1.1,9 -0.2,1.3 -1.8,11.2 -3.4,22 -1.7,10.7 -3.1,21.5 -3.1,24 0,2.4 -0.4,6.1 -1,8.1 -0.5,1.9 -0.9,4.5 -0.9,5.7 v 2.2 0 l -0.6,4.2 c -0.2,2.3 -0.9,7.3 -1.6,11.1 -0.6,3.7 -1.2,6.6 -1.4,6.4 -0.2,-0.2 -6.1,-22.4 -13,-49.3 -6.9,-26.9 -12.7,-49 -12.8,-49.1 -0.1,-0.2 -21.3,11.9 -47.2,26.8 -25.8,14.9 -50.3,28.8 -54.4,30.9 -4.2,2.1 -10.5,4.7 -14,5.7 -4.9,1.3 -10.1,1.7 -20.5,1.7 -12.7,0 -14.8,-0.3 -22,-2.8 -4.4,-1.5 -10.5,-4.2 -13.5,-5.8 -3.1,-1.7 -8.4,-5.4 -11.9,-8.2 -3.5,-2.8 -8.7,-8.3 -11.6,-12.1 -2.9,-3.9 -6.5,-9.3 -7.8,-12 -1.4,-2.8 -3.6,-8.2 -4.9,-12 l -2.3,-7 -0.1,-323.5 c 0,-178 0.2,-370.1 0.5,-427 l 0.6,-103.5 2.8,-8 c 1.5,-4.4 4.6,-11.2 6.9,-15 2.4,-4.2 7.4,-10.4 12.2,-15.1 6.2,-6.1 10.5,-9.2 17.2,-12.7 4.9,-2.5 12.5,-5.6 16.9,-6.7 5.9,-1.6 10.8,-2.2 19,-2.2 6.8,0 13.2,0.7 16.9,1.6 3.3,0.9 8.4,2.6 11.5,3.9 3.1,1.2 58.2,32.5 122.6,69.6 64.3,37.1 117.4,67.4 118,67.4 0.6,0 24.3,-17.4 52.8,-38.7 L 656,90" />
    <path d="m 552.9,854.1 c 0.6,-1.1 24.1,-39.4 52.3,-85.3 74.3,-120.5 158,-256.4 176.1,-285.7 8.6,-13.9 15.7,-25.5 15.7,-25.8 0,-0.2 -42.9,-0.3 -95.4,-0.3 h -95.3 l 19.3,-116.3 c 10.6,-63.9 19.3,-116.6 19.3,-117 0,-0.4 0.5,-0.8 1.1,-0.8 0.5,0 33.3,18.7 72.7,41.5 39.5,22.8 122.7,70.8 185,106.7 62.2,36 116,67.4 119.4,69.9 13.8,9.9 27.2,30.3 32,48.5 3.1,11.8 3.1,32.7 0,44.5 -6.8,25.4 -21.6,43.9 -47.3,58.7 -5.1,3 -47.1,27.3 -93.3,54 -46.2,26.7 -146,84.5 -221.8,128.4 -75.8,43.9 -138.4,80.1 -139.2,80.4 -1.2,0.3 -1.3,0.1 -0.6,-1.4" />
  </g>
  <g fill="#ffffff" fill-rule="evenodd" transform="translate(-206.39999,-24.799999)">
    <path d="m 446,1010 v -2.2 c 0,-1.2 0.4,-3.8 0.9,-5.7 0.6,-2 1,-5.7 1,-8.1 0,-2.5 1.4,-13.3 3.1,-24 1.6,-10.8 3.2,-20.7 3.4,-22 0.3,-1.4 0.7,-5.5 1.1,-9 0.3,-3.6 1,-7.2 1.4,-8 0.4,-0.9 0.8,-3.3 0.9,-5.5 0.1,-2.2 1.3,-11.2 2.7,-20 1.4,-8.8 2.7,-17.4 2.9,-19 0.2,-1.7 0.7,-5.3 1,-8 0.4,-2.8 1.3,-9.3 2.1,-14.5 0.9,-5.3 1.8,-10.7 2.1,-12 0.2,-1.4 0.7,-4.6 0.9,-7 0.2,-2.5 0.7,-6.1 1.1,-8 0.4,-2 0.8,-4.4 1,-5.5 0.1,-1.1 0.4,-3.6 0.7,-5.5 0.3,-2 0.8,-5.7 1.1,-8.4 0.3,-2.6 1,-7.8 1.6,-11.5 0.6,-3.6 1.3,-7.8 1.5,-9.1 0.3,-1.4 0.7,-5.2 1,-8.5 0.4,-3.3 1.1,-6.8 1.6,-7.8 0.5,-1 0.7,-2.1 0.5,-2.5 -0.2,-0.4 0.2,-4.8 1,-9.7 0.8,-5 1.6,-10.2 1.8,-11.5 0.2,-1.4 0.7,-5 1,-8 0.4,-3.1 1.3,-9.6 2.1,-14.5 0.9,-5 1.7,-10.2 1.9,-11.5 0.2,-1.4 0.6,-5.1 1,-8.3 0.3,-3.1 1.3,-9.6 2.2,-14.5 0.8,-4.8 1.7,-9.9 1.9,-11.2 0.2,-1.4 0.6,-4.6 1,-7 0.3,-2.5 0.8,-5.8 1,-7.3 0.3,-1.5 0.6,-4 0.8,-5.5 0.3,-1.5 0.7,-5.4 1.1,-8.7 0.4,-3.3 1.1,-8.5 1.7,-11.5 0.6,-3.1 1.1,-6.9 1.2,-8.5 l 0.2,-3 -97,-0.2 c -70.4,-0.2 -97.1,-0.5 -97.4,-1.3 -0.2,-0.6 0.9,-3 2.4,-5.3 1.5,-2.3 2.8,-4.8 2.8,-5.4 0,-0.7 0.6,-1.5 1.4,-1.8 0.7,-0.3 1.1,-0.9 0.8,-1.4 -0.3,-0.5 0.2,-1.2 1,-1.5 0.9,-0.4 1.3,-1 1,-1.5 -0.3,-0.5 0.2,-1.2 1,-1.5 0.9,-0.4 1.3,-1 1,-1.5 -0.3,-0.5 0.2,-1.2 1,-1.5 0.9,-0.4 1.3,-1.1 1,-1.6 -0.4,-0.6 -0.3,-1 0.2,-1 0.5,0 2.8,-2.8 5.1,-6.1 2.3,-3.4 3.9,-6.5 3.6,-7 -0.3,-0.5 0.2,-0.9 1.1,-0.9 1,0 1.5,-0.6 1.1,-1.5 -0.3,-0.7 0.2,-1.6 1,-2 0.8,-0.3 1.2,-0.9 0.9,-1.4 -0.3,-0.5 0.2,-1.2 1,-1.5 0.9,-0.4 1.3,-1 1,-1.5 -0.3,-0.5 0.2,-1.2 1,-1.5 0.9,-0.4 1.3,-1.1 1,-1.6 -0.4,-0.6 -0.3,-1 0.2,-1 0.5,0 3.1,-3.3 5.8,-7.3 2.6,-4 4.8,-7.8 4.8,-8.4 0,-0.7 0.6,-1.5 1.4,-1.8 0.7,-0.3 1.1,-0.9 0.8,-1.4 -0.3,-0.5 0.2,-1.2 1,-1.5 0.9,-0.4 1.3,-1.1 1,-1.6 -0.4,-0.6 -0.3,-1 0.2,-1 0.5,0 3.6,-4 6.8,-8.8 3.2,-4.8 5.8,-9.3 5.8,-9.9 0,-0.7 0.6,-1.5 1.4,-1.8 0.7,-0.3 1.1,-0.9 0.8,-1.4 -0.3,-0.5 0.2,-1.2 1,-1.5 0.9,-0.4 1.3,-1 1,-1.5 -0.3,-0.5 0.2,-1.2 1,-1.5 0.9,-0.4 1.3,-1.1 1,-1.6 -0.4,-0.6 -0.3,-1 0.3,-1 0.5,0 2.1,-2 3.7,-4.3 1.5,-2.3 2.8,-4.8 2.8,-5.4 0,-0.7 0.6,-1.5 1.4,-1.8 0.7,-0.3 1.1,-0.9 0.8,-1.4 -0.3,-0.5 0.2,-1.2 1,-1.5 0.9,-0.4 1.3,-1 1,-1.5 -0.3,-0.5 0.2,-1.2 1,-1.5 0.9,-0.4 1.3,-1 1,-1.5 -0.3,-0.5 0.2,-1.2 1.1,-1.6 0.9,-0.3 1.4,-0.8 1.1,-1.1 -0.3,-0.3 0.5,-1.7 1.8,-3.1 1.3,-1.4 2.2,-3 1.9,-3.5 -0.3,-0.5 -0.2,-0.8 0.3,-0.8 0.6,0 2.7,-2.6 4.8,-5.8 2.1,-3.1 3.8,-6.3 3.8,-6.9 0,-0.7 0.6,-1.5 1.4,-1.8 0.7,-0.3 1.1,-0.9 0.8,-1.4 -0.3,-0.5 0.2,-1.2 1,-1.5 0.9,-0.4 1.3,-1 1,-1.5 -0.3,-0.5 0.2,-1.2 1,-1.5 0.9,-0.4 1.3,-1 1,-1.5 -0.3,-0.5 0.2,-1.2 1,-1.5 0.9,-0.4 1.3,-1 1,-1.5 -0.3,-0.5 0.2,-1.2 1,-1.5 0.9,-0.4 1.3,-1.1 1,-1.6 -0.4,-0.6 -0.3,-1.1 0.3,-1.1 0.5,0.1 2.1,-1.9 3.7,-4.2 1.5,-2.3 2.8,-4.8 2.8,-5.4 0,-0.7 0.6,-1.5 1.4,-1.8 0.7,-0.3 1.1,-0.9 0.8,-1.4 -0.3,-0.5 0.2,-1.2 1,-1.5 0.9,-0.4 1.3,-1 1,-1.5 -0.3,-0.5 0.2,-1.2 1,-1.5 0.9,-0.4 1.3,-1.1 1,-1.6 -0.4,-0.6 -0.3,-1 0.2,-1 0.5,0 3.6,-4 6.8,-8.8 3.2,-4.8 5.8,-9.3 5.8,-9.9 0,-0.7 0.6,-1.5 1.4,-1.8 0.7,-0.3 1.1,-0.9 0.8,-1.4 -0.3,-0.5 0.2,-1.2 1,-1.5 0.9,-0.4 1.3,-1.1 1,-1.6 -0.4,-0.6 -0.3,-1.1 0.3,-1.1 0.5,0.1 2.1,-1.7 3.5,-3.9 1.4,-2.2 2.7,-4.5 2.9,-5.3 0.1,-0.7 0.9,-1.8 1.8,-2.5 0.8,-0.6 1.1,-1.2 0.7,-1.2 -0.3,0 0.5,-1.2 1.8,-2.6 1.4,-1.3 2.3,-2.9 2,-3.4 -0.3,-0.4 0.2,-1.1 1,-1.4 0.9,-0.4 1.3,-1 1,-1.5 -0.3,-0.5 0.2,-1.2 1,-1.5 0.9,-0.4 1.3,-1 1,-1.5 -0.3,-0.5 0.2,-1.2 1,-1.5 0.9,-0.4 1.3,-1 1,-1.5 -0.3,-0.5 0.2,-1.2 1,-1.5 0.9,-0.4 1.3,-1 1,-1.5 -0.3,-0.5 0.2,-1.2 1,-1.5 0.9,-0.4 1.3,-1.1 1,-1.6 -0.4,-0.6 -0.3,-1 0.3,-1 0.5,0 2.1,-2 3.7,-4.3 1.5,-2.3 2.8,-4.8 2.8,-5.4 0,-0.7 0.6,-1.5 1.4,-1.8 0.7,-0.3 1.1,-0.9 0.8,-1.4 -0.3,-0.5 0.2,-1.2 1,-1.5 0.9,-0.4 1.3,-1 1,-1.5 -0.3,-0.5 0.2,-1.2 1,-1.5 0.9,-0.4 1.3,-1.1 1,-1.6 -0.4,-0.6 -0.3,-1 0.2,-1 0.6,0 2.7,-2.6 4.8,-5.8 2.1,-3.1 3.8,-6.3 3.8,-6.9 0,-0.7 0.6,-1.5 1.4,-1.8 0.7,-0.3 1.1,-0.9 0.8,-1.4 -0.3,-0.5 0.2,-1.2 1,-1.5 0.9,-0.4 1.3,-1 1,-1.5 -0.3,-0.5 0.2,-1.2 1,-1.5 0.9,-0.4 1.3,-1 1,-1.5 -0.3,-0.5 0.2,-1.2 1,-1.5 0.9,-0.4 1.3,-1.1 1,-1.6 -0.4,-0.6 -0.3,-1 0.2,-1 0.6,0 2.7,-2.6 4.8,-5.8 2.1,-3.1 3.8,-6.3 3.8,-6.9 0,-0.7 0.6,-1.5 1.4,-1.8 0.7,-0.3 1.1,-0.9 0.8,-1.4 -0.3,-0.5 0.2,-1.2 1,-1.5 0.9,-0.4 1.3,-1 1,-1.5 -0.3,-0.5 0.2,-1.2 1,-1.5 0.9,-0.4 1.3,-1 1,-1.5 -0.3,-0.5 0.2,-1.2 1,-1.5 0.9,-0.4 1.3,-1.1 1,-1.6 -0.4,-0.6 -0.3,-1 0.2,-1.1 0.5,0 3.1,-3.2 5.8,-7.2 2.6,-4 4.8,-7.8 4.8,-8.4 0,-0.7 0.6,-1.5 1.4,-1.8 0.7,-0.3 1.1,-1 0.8,-1.5 -0.4,-0.6 -0.2,-1 0.3,-1 0.5,0 2,-1.7 3.3,-3.8 1.3,-2.1 2.2,-4.1 2.1,-4.5 -0.1,-0.4 0.1,-0.8 0.6,-0.8 0.5,0 2.5,-2.4 4.5,-5.4 2,-3 3.7,-6.1 3.9,-6.8 0.1,-0.7 0.9,-1.8 1.8,-2.5 0.8,-0.6 1.1,-1.2 0.7,-1.2 -0.3,0 0.4,-1.2 1.8,-2.7 1.3,-1.4 2.2,-3 1.9,-3.5 -0.3,-0.5 -0.2,-0.8 0.3,-0.9 0.6,0 2.7,-2.5 4.8,-5.7 2.1,-3.1 3.8,-6.3 3.8,-6.9 0,-0.7 0.6,-1.5 1.4,-1.8 0.7,-0.3 1.1,-0.9 0.8,-1.4 -0.3,-0.5 0.2,-1.2 1,-1.5 0.9,-0.4 1.3,-1 1,-1.5 -0.3,-0.5 0.2,-1.2 1,-1.5 0.9,-0.4 1.3,-1 1,-1.5 -0.3,-0.5 0.2,-1.2 1,-1.5 0.9,-0.4 1.3,-1.1 1,-1.6 -0.4,-0.6 -0.2,-1 0.3,-1 0.5,0 1.6,-1.1 2.5,-2.5 0.9,-1.3 1.7,-3 1.9,-3.7 0.1,-0.7 0.9,-1.9 1.8,-2.6 0.8,-0.6 1.1,-1.2 0.7,-1.2 -0.3,0 0.5,-1.2 1.8,-2.6 1.4,-1.3 2.3,-2.9 2,-3.4 -0.3,-0.4 0.2,-1.1 1,-1.4 0.9,-0.4 1.3,-1 1,-1.5 -0.3,-0.5 0.2,-1.2 1,-1.5 0.9,-0.4 1.3,-1.1 1,-1.6 -0.4,-0.6 -0.3,-1.1 0.2,-1.1 0.5,0 3.6,-3.9 6.8,-8.7 3.2,-4.8 5.8,-9.3 5.8,-9.9 0,-0.7 0.6,-1.5 1.4,-1.8 0.7,-0.3 1.1,-0.9 0.8,-1.4 -0.3,-0.5 0.2,-1.2 1,-1.5 0.9,-0.4 1.3,-1.1 1,-1.6 -0.4,-0.6 -0.3,-1 0.2,-1 0.6,-0.1 2.6,-2.5 4.6,-5.5 2,-3 3.7,-6 3.9,-6.6 0.1,-0.7 1.3,-2.3 2.6,-3.6 1.2,-1.3 2,-2.8 1.7,-3.3 -0.3,-0.4 0.2,-1.1 1,-1.4 0.9,-0.4 1.3,-1 1,-1.5 -0.3,-0.5 0.2,-1.2 1,-1.5 0.9,-0.4 1.3,-1.1 1,-1.6 -0.4,-0.6 -0.3,-1 0.2,-1 0.5,0 3.1,-3.3 5.8,-7.3 2.6,-4 4.8,-7.8 4.8,-8.4 0,-0.7 0.6,-1.5 1.4,-1.8 0.7,-0.3 1.1,-0.9 0.8,-1.4 -0.3,-0.5 0.2,-1.2 1,-1.5 0.9,-0.4 1.3,-1.1 1,-1.6 -0.4,-0.6 -0.3,-1 0.2,-1 0.5,0 3.6,-4 6.8,-8.8 3.2,-4.8 5.8,-9.3 5.8,-9.9 0,-0.7 0.6,-1.5 1.4,-1.8 0.7,-0.3 1.1,-0.9 0.8,-1.4 -0.3,-0.5 0.2,-1.2 1,-1.5 0.9,-0.4 1.3,-1 1,-1.5 -0.3,-0.5 0.2,-1.2 1,-1.5 0.9,-0.4 1.3,-1.1 1,-1.6 -0.4,-0.6 -0.3,-1.1 0.2,-1.1 0.5,0.1 3.1,-3.2 5.8,-7.2 2.6,-4 4.8,-7.8 4.8,-8.4 0,-0.7 0.6,-1.5 1.4,-1.8 0.7,-0.3 1.1,-0.9 0.8,-1.4 -0.3,-0.5 0.2,-1.2 1,-1.5 0.9,-0.4 1.3,-1.1 1,-1.6 -0.4,-0.6 -0.1,-1 0.6,-1 0.6,0 0.9,-0.4 0.5,-0.7 -0.4,-0.4 0.7,-1.3 2.3,-2 L 663,91 v -1 -0.5 c 0,-0.3 0.2,-0.5 0.5,-0.5 H 664 L 663.5,88.5 664,88 h 1 l 2.6,-2.2 2.6,-2.2 -1.5,2.9 c -0.9,1.6 -34.2,72.2 -74,157 -39.9,84.7 -87.7,186.1 -106.2,225.5 -18.6,39.3 -34,72.2 -34.3,73.2 -0.5,1.6 4.4,1.8 88.5,2 l 89,0.3 -90.8,242 c -49.9,133.1 -91.2,242.6 -91.8,243.5 -0.7,1 -1,-1.6 -1.1,-9.3 0,-5.9 -0.3,-10.7 -0.5,-10.7 -0.3,0 -0.8,0 -1,0 H 446" />
  </g>
</svg>
